========================= HELLBOY-2 THE GOLDEN ARMY HD(HINDI)======================

Format                           : Matroska
File size                        : 454 MiB
Duration                         : 1h 54mn
Overall bit rate                 : 553 Kbps
Encoded date                     : UTC 2009-05-31 18:37:20
Writing application              : mkvmerge v2.8.0 (\'The Tree\') built on May  9 2009 18:02:06
Writing library                  : libebml v0.7.7 + libmatroska v0.8.1

Video
ID                               : 1
Format                           : AVC
Format/Info                      : Advanced Video Codec
Format profile                   : High@L2.2
Format settings, CABAC           : Yes
Format settings, ReFrames        : 8 frames
Muxing mode                      : Container profile=Unknown@2.2
Codec ID                         : V_MPEG4/ISO/AVC
Duration                         : 1h 54mn
Bit rate                         : 467 Kbps
Width                            : 640 pixels
Height                           : 320 pixels
Display aspect ratio             : 2.000
Frame rate                       : 25.000 fps
Original frame rate              : 23.976 fps
Color space                      : YUV
Chroma subsampling               : 4:2:0
Bit depth                        : 8 bits
Scan type                        : Progressive
Bits/(Pixel*Frame)               : 0.091
Stream size                      : 366 MiB (81%)
Writing library                  : x264 core 65 r1016M dbc5ef0
Encoding settings                : cabac=1 / ref=8 / deblock=1:-1:-1 / 
Audio
ID                               : 2
Format                           : AC-3
Format/Info                      : Audio Coding 3
Mode extension                   : CM (complete main)
Codec ID                         : A_AC3
Duration                         : 1h 54mn
Bit rate mode                    : Constant
Bit rate                         : 96.0 Kbps
Channel(s)                       : 2 channels
Channel positions                : Front: L R
Sampling rate                    : 48.0 KHz
Video delay                      : 8s 0ms
Stream size                      : 78.8 MiB (17%)

====================== SCREEN SHOT=====================================

                        http://bayimg.com/PaimIAADF

=======================================================================

                     http://www.imdb.com/title/tt0411477/

=========================================================================

an evil elf breaks an ancient pact between humans and creatures, as he declares war against humanity. He is on a mission to release The Golden Army, a deadly group of fighting machines that can destroy the human race. As Hell on Earth is ready to erupt, Hellboy and his crew set out to defeat the evil prince before The Golden Army can destroy humanity\'s existence. Written

==================================================================================		
